<svg id="visual" viewBox="0 0 1200 675" width="1200" height="675" xmlns="http://www.w3.org/2000/svg" xmlns:xlink="http://www.w3.org/1999/xlink" version="1.1"><rect x="0" y="0" width="1200" height="675" fill="#f6a460"></rect><g transform="translate(65.2646522269086 622.6786571697191)"><path d="M311.9 -370.6C411.7 -288 505.2 -196.8 507 -101.9C508.8 -7.1 418.8 91.4 355.4 208.9C292 326.4 255.1 463 157.2 549.7C59.3 636.5 -99.6 673.4 -211.6 617.2C-323.6 560.9 -388.7 411.5 -470.3 271.1C-551.8 130.7 -649.8 -0.6 -636.3 -118.3C-622.8 -236 -497.8 -340.2 -373.2 -418.3C-248.5 -496.5 -124.3 -548.8 -9.1 -537.9C106.1 -527.1 212.1 -453.1 311.9 -370.6" fill="#f29244"></path></g></svg>