<svg xmlns="http://www.w3.org/2000/svg" xmlns:xlink="http://www.w3.org/1999/xlink" width="500" zoomAndPan="magnify" viewBox="0 0 375 374.999991" height="500" preserveAspectRatio="xMidYMid meet" version="1.0"><defs><g/><clipPath id="f1b09225c2"><path d="M 68 129 L 188 129 L 188 177.222656 L 68 177.222656 Z M 68 129 " clip-rule="nonzero"/></clipPath><clipPath id="2aa99836e7"><path d="M 187 129 L 307 129 L 307 177.222656 L 187 177.222656 Z M 187 129 " clip-rule="nonzero"/></clipPath></defs><g clip-path="url(#f1b09225c2)"><path fill="#763c00" d="M 187.410156 129.011719 L 175.847656 129.011719 C 175.847656 129.011719 164.3125 143.71875 143.828125 145.78125 C 95 150.695312 74.121094 162.136719 70.074219 169.65625 C 66.027344 177.175781 72.386719 177.175781 72.386719 177.175781 C 72.386719 177.175781 78.746094 167.921875 97.820312 165.605469 C 116.894531 163.296875 187.410156 150.695312 187.410156 150.695312 L 187.410156 129.011719 " fill-opacity="1" fill-rule="nonzero"/></g><g clip-path="url(#2aa99836e7)"><path fill="#763c00" d="M 187.410156 129.011719 L 198.96875 129.011719 C 198.96875 129.011719 210.507812 143.71875 230.992188 145.78125 C 279.816406 150.695312 300.699219 162.136719 304.746094 169.65625 C 308.792969 177.175781 302.433594 177.175781 302.433594 177.175781 C 302.433594 177.175781 296.074219 167.921875 277 165.605469 C 257.925781 163.296875 187.410156 150.695312 187.410156 150.695312 L 187.410156 129.011719 " fill-opacity="1" fill-rule="nonzero"/></g><path fill="#763c00" d="M 187.410156 131.402344 C 186.085938 131.402344 185.015625 130.328125 185.015625 129.011719 L 185.015625 113.4375 C 185.015625 112.113281 186.085938 111.042969 187.410156 111.042969 C 192.921875 111.042969 199.046875 106.507812 201.660156 100.496094 C 203.113281 97.15625 204.652344 90.597656 198.667969 84.167969 C 192.035156 77.050781 184.746094 79.898438 181.921875 81.453125 C 176.417969 84.476562 171.546875 91.421875 173.347656 98.332031 C 173.683594 99.613281 172.914062 100.917969 171.636719 101.253906 C 170.363281 101.585938 169.046875 100.820312 168.71875 99.539062 C 166.273438 90.1875 172.351562 81.25 179.617188 77.253906 C 187.429688 72.957031 196.070312 74.355469 202.164062 80.90625 C 207.898438 87.058594 209.3125 94.898438 206.050781 102.40625 C 203.03125 109.351562 196.457031 114.597656 189.804688 115.644531 L 189.804688 129.011719 C 189.804688 130.328125 188.730469 131.402344 187.410156 131.402344 " fill-opacity="1" fill-rule="nonzero"/><g fill="#763c00" fill-opacity="1"><g transform="translate(72.390688, 229.812057)"><g><path d="M 57.179688 -20.476562 C 54.503906 -20.082031 51.917969 -19.777344 49.332031 -19.425781 C 48.980469 -19.382812 48.585938 -19.558594 48.320312 -19.820312 C 48.101562 -20.125 48.015625 -20.519531 48.144531 -20.871094 L 57.484375 -51.609375 C 57.660156 -52.222656 57.3125 -52.839844 56.695312 -53.058594 C 56.082031 -53.234375 55.46875 -52.882812 55.25 -52.269531 L 45.339844 -19.644531 C 45.207031 -19.207031 44.859375 -18.898438 44.417969 -18.855469 C 43.367188 -18.765625 42.359375 -18.636719 41.351562 -18.546875 C 40.867188 -18.503906 40.429688 -18.765625 40.210938 -19.207031 C 38.761719 -22.320312 36.394531 -24.90625 33.371094 -26.574219 C 32.886719 -26.792969 32.40625 -27.054688 31.878906 -27.273438 C 31.394531 -27.492188 31.089844 -28.0625 31.265625 -28.589844 L 37.140625 -49.726562 C 37.273438 -50.164062 37.183594 -50.558594 36.878906 -50.863281 C 36.570312 -51.171875 36.132812 -51.304688 35.738281 -51.171875 C 35.34375 -51.085938 35.035156 -50.777344 34.949219 -50.339844 L 29.070312 -29.246094 C 28.898438 -28.675781 28.328125 -28.371094 27.757812 -28.457031 C 19.777344 -29.90625 10.566406 -26.574219 4.386719 -21.660156 C 2.5 -20.171875 1.796875 -18.765625 2.367188 -17.453125 C 3.550781 -14.644531 12.761719 -14.25 23.503906 -14.734375 C 23.855469 -14.777344 24.203125 -14.601562 24.425781 -14.339844 C 24.644531 -14.074219 24.730469 -13.679688 24.644531 -13.332031 L 21.398438 -1.753906 C 21.265625 -1.140625 21.617188 -0.527344 22.230469 -0.394531 C 22.84375 -0.21875 23.460938 -0.570312 23.632812 -1.140625 L 27.273438 -14.207031 C 27.40625 -14.6875 27.800781 -14.996094 28.28125 -15.039062 C 31.570312 -15.257812 34.902344 -15.566406 38.105469 -15.875 C 38.632812 -15.917969 39.15625 -15.609375 39.289062 -15.085938 C 40.339844 -10.832031 40.605469 -6.402344 40.035156 -2.0625 C 39.945312 -1.445312 40.339844 -0.921875 40.910156 -0.789062 C 41.523438 -0.65625 42.09375 -1.007812 42.269531 -1.578125 L 46.699219 -16.136719 C 46.832031 -16.574219 47.179688 -16.882812 47.621094 -16.925781 C 51.652344 -17.40625 55.074219 -17.847656 57.484375 -18.199219 C 57.878906 -18.242188 58.277344 -18.503906 58.40625 -18.898438 C 58.582031 -19.292969 58.496094 -19.730469 58.277344 -20.039062 C 58.011719 -20.390625 57.574219 -20.519531 57.179688 -20.476562 Z M 4.472656 -18.371094 C 4.472656 -18.371094 4.472656 -18.855469 5.789062 -19.90625 C 11.007812 -23.984375 17.363281 -26.308594 23.984375 -26.484375 C 24.949219 -26.527344 25.957031 -26.441406 26.96875 -26.265625 C 27.273438 -26.222656 27.539062 -26.046875 27.710938 -25.785156 C 27.886719 -25.519531 27.933594 -25.167969 27.84375 -24.863281 L 25.914062 -18.023438 C 25.785156 -17.539062 25.386719 -17.234375 24.90625 -17.1875 C 13.109375 -16.53125 5.085938 -16.839844 4.472656 -18.371094 Z M 29.730469 -17.496094 C 29.335938 -17.453125 28.984375 -17.628906 28.765625 -17.890625 C 28.546875 -18.199219 28.457031 -18.59375 28.589844 -18.898438 L 30.386719 -25.386719 C 31 -25.167969 31.660156 -24.863281 32.273438 -24.554688 C 34.289062 -23.414062 36.042969 -21.792969 37.273438 -19.777344 C 37.445312 -19.46875 37.492188 -19.03125 37.316406 -18.679688 C 37.140625 -18.328125 36.789062 -18.109375 36.394531 -18.066406 C 34.113281 -17.847656 31.878906 -17.671875 29.730469 -17.496094 Z M 42.488281 -10.21875 C 42.359375 -11.839844 42.09375 -13.417969 41.699219 -14.996094 C 41.65625 -15.304688 41.699219 -15.609375 41.875 -15.875 C 42.050781 -16.136719 42.359375 -16.3125 42.664062 -16.355469 L 42.710938 -16.355469 C 43.105469 -16.398438 43.453125 -16.222656 43.671875 -15.960938 C 43.9375 -15.652344 44.023438 -15.257812 43.894531 -14.910156 Z M 42.488281 -10.21875 "/></g></g></g><g fill="#763c00" fill-opacity="1"><g transform="translate(130.6663, 229.812057)"><g><path d="M 36.65625 -10.613281 C 36.21875 -11.09375 35.472656 -11.136719 34.992188 -10.699219 C 34.859375 -10.566406 21.835938 1.140625 13.769531 -4.164062 C 10.566406 -6.269531 9.777344 -11.355469 9.777344 -11.402344 C 9.734375 -11.925781 9.339844 -12.320312 8.8125 -12.410156 C 8.332031 -12.453125 7.804688 -12.191406 7.585938 -11.75 C 5.523438 -7.191406 1.886719 -1.402344 0.878906 -2.0625 C 0.789062 -2.0625 0.613281 -2.234375 0.480469 -2.542969 C -0.0429688 -3.992188 0.132812 -5.570312 0.878906 -6.929688 C 2.542969 -10.347656 5.613281 -12.804688 9.296875 -13.726562 C 9.691406 -13.8125 9.996094 -14.121094 10.128906 -14.515625 C 10.261719 -14.910156 10.128906 -15.347656 9.867188 -15.652344 C 9.558594 -15.917969 9.164062 -16.046875 8.769531 -15.960938 C 4.386719 -14.910156 0.746094 -11.925781 -1.226562 -7.894531 C -2.28125 -5.917969 -2.410156 -3.550781 -1.578125 -1.492188 C -1.183594 -0.480469 -0.21875 0.21875 0.878906 0.21875 L 0.921875 0.21875 C 3.070312 0.175781 5.746094 -2.5 7.585938 -5.394531 C 7.804688 -5.746094 8.199219 -5.917969 8.59375 -5.875 C 8.988281 -5.875 9.339844 -5.65625 9.515625 -5.304688 C 10.261719 -4.078125 11.269531 -3.027344 12.496094 -2.28125 C 22.054688 4.078125 35.957031 -8.460938 36.570312 -8.988281 C 36.789062 -9.207031 36.921875 -9.515625 36.921875 -9.777344 C 36.964844 -10.085938 36.832031 -10.390625 36.65625 -10.613281 Z M 36.65625 -10.613281 "/></g></g></g><g fill="#763c00" fill-opacity="1"><g transform="translate(166.096473, 229.812057)"><g><path d="M 38.324219 -10.917969 C 38.0625 -11.09375 37.796875 -11.226562 37.492188 -11.226562 C 37.183594 -11.179688 36.878906 -11.050781 36.703125 -10.832031 C 36.570312 -10.742188 26.921875 -0.4375 18.546875 -3.816406 C 16.75 -4.78125 15.304688 -6.226562 14.292969 -8.023438 C 13.945312 -8.59375 13.503906 -9.164062 12.980469 -9.691406 C 12.410156 -10.390625 11.53125 -10.785156 10.613281 -10.832031 C 8.375 -11.007812 5.65625 -9.515625 2.410156 -6.445312 C 2.324219 -6.359375 2.191406 -6.3125 2.0625 -6.402344 C 1.929688 -6.445312 1.839844 -6.621094 1.886719 -6.753906 L 2.851562 -11.050781 C 3.027344 -11.664062 2.632812 -12.320312 2.015625 -12.453125 C 1.402344 -12.585938 0.789062 -12.191406 0.613281 -11.574219 L -1.578125 -1.972656 C -1.710938 -1.445312 -1.445312 -0.921875 -0.964844 -0.703125 C -0.480469 -0.4375 0.0859375 -0.570312 0.4375 -0.964844 C 6.3125 -7.847656 9.296875 -8.507812 10.347656 -8.550781 C 11.402344 -8.59375 12.058594 -7.234375 12.410156 -6.707031 C 13.636719 -4.558594 15.480469 -2.804688 17.671875 -1.710938 C 27.492188 2.28125 37.929688 -8.8125 38.367188 -9.296875 C 38.804688 -9.734375 38.761719 -10.480469 38.324219 -10.917969 Z M 38.324219 -10.917969 "/></g></g></g><g fill="#763c00" fill-opacity="1"><g transform="translate(202.62287, 229.812057)"><g><path d="M 30.519531 -11.53125 C 30.035156 -11.972656 29.292969 -11.925781 28.898438 -11.445312 C 25.433594 -7.847656 19.820312 -7.5 15.960938 -10.613281 C 15.039062 -11.269531 13.769531 -11.226562 12.933594 -10.4375 C 12.453125 -9.996094 11.925781 -9.515625 11.402344 -8.945312 C 9.734375 -7.058594 9.425781 -8.636719 9.425781 -9.691406 C 9.425781 -10.613281 9.253906 -11.574219 8.945312 -12.453125 C 8.769531 -12.890625 8.332031 -13.199219 7.847656 -13.199219 C 7.367188 -13.15625 6.972656 -12.890625 6.796875 -12.410156 C 5.570312 -8.988281 2.9375 -3.992188 1.097656 -3.640625 C 0.964844 -3.59375 0.613281 -3.550781 0.0859375 -4.121094 C -0.175781 -5.261719 0 -6.488281 0.570312 -7.542969 C 1.886719 -11.09375 5.128906 -13.59375 8.902344 -13.945312 C 9.558594 -13.988281 10.042969 -14.558594 9.996094 -15.171875 C 9.953125 -15.828125 9.382812 -16.3125 8.769531 -16.269531 C 4.078125 -15.828125 0.0429688 -12.761719 -1.621094 -8.332031 C -2.367188 -6.402344 -2.804688 -3.859375 -1.621094 -2.585938 C -0.832031 -1.621094 0.351562 -1.183594 1.535156 -1.402344 C 3.726562 -1.839844 5.699219 -4.734375 7.105469 -7.367188 C 7.015625 -6.3125 6.882812 -5.128906 6.707031 -3.902344 C 6.664062 -3.640625 6.578125 -3.421875 6.445312 -3.246094 C 1.316406 3.246094 -3.332031 11.09375 -3.421875 16.046875 C -3.550781 17.363281 -3.070312 18.679688 -2.191406 19.644531 C -1.753906 20.082031 -1.226562 20.300781 -0.65625 20.300781 C -0.175781 20.300781 0.308594 20.171875 0.703125 19.90625 C 3.59375 17.976562 7.277344 6.707031 8.726562 -2.234375 C 8.769531 -2.410156 8.859375 -2.585938 8.988281 -2.761719 C 10.523438 -4.648438 12.144531 -6.445312 13.855469 -8.15625 C 14.25 -8.550781 14.863281 -8.59375 15.304688 -8.289062 C 20.125 -5.042969 26.527344 -5.746094 30.5625 -9.910156 C 30.957031 -10.390625 30.957031 -11.09375 30.519531 -11.53125 Z M 1.316406 15.257812 C 0.308594 17.277344 -0.0429688 18.152344 -0.570312 17.976562 C -1.097656 17.847656 -1.140625 16.96875 -1.097656 16.09375 C -1.007812 12.714844 4.867188 1.273438 5.699219 1.621094 C 6.535156 1.972656 2.980469 11.796875 1.316406 15.257812 Z M 1.316406 15.257812 "/></g></g></g><g fill="#763c00" fill-opacity="1"><g transform="translate(231.519506, 229.812057)"><g><path d="M 36.789062 -11.269531 C 36.570312 -11.488281 36.308594 -11.664062 36 -11.664062 C 35.691406 -11.707031 35.386719 -11.621094 35.167969 -11.445312 C 34.992188 -11.3125 18.109375 2.105469 4.035156 -3.683594 C 1.183594 -4.867188 1.050781 -6.402344 1.140625 -7.234375 C 1.140625 -7.367188 1.183594 -7.5 1.316406 -7.585938 C 1.402344 -7.671875 1.578125 -7.671875 1.710938 -7.628906 C 4.558594 -7.453125 7.410156 -8.199219 9.867188 -9.734375 C 11.972656 -11.09375 12.320312 -12.585938 12.191406 -13.550781 C 12.101562 -15.128906 10.832031 -16.398438 9.207031 -16.445312 C 5.746094 -16.617188 -0.0429688 -12.496094 -1.007812 -8.113281 C -1.402344 -6.488281 -1.359375 -3.421875 3.15625 -1.578125 C 5.917969 -0.4375 8.8125 0.0859375 11.75 0.0859375 C 24.335938 0.0859375 36 -9.164062 36.613281 -9.648438 C 36.832031 -9.820312 37.007812 -10.128906 37.007812 -10.390625 C 37.050781 -10.699219 36.964844 -11.007812 36.789062 -11.269531 Z M 2.71875 -10.304688 C 4.429688 -12.671875 7.277344 -14.25 9.078125 -14.121094 C 9.558594 -14.121094 9.820312 -13.945312 9.910156 -13.285156 C 9.953125 -12.847656 9.472656 -12.234375 8.59375 -11.664062 C 6.796875 -10.480469 1.402344 -8.550781 2.71875 -10.304688 Z M 2.71875 -10.304688 "/></g></g></g><g fill="#763c00" fill-opacity="1"><g transform="translate(266.642729, 229.812057)"><g><path d="M 37.796875 -11.53125 C 37.578125 -11.75 37.316406 -11.882812 37.007812 -11.882812 C 36.703125 -11.882812 36.394531 -11.75 36.175781 -11.53125 C 28.589844 -4.121094 15.128906 -2.542969 12.234375 -4.253906 C 10.261719 -5.394531 10.480469 -6.753906 11.882812 -9.472656 C 12.539062 -10.785156 13.285156 -12.320312 12.015625 -13.242188 C 10.832031 -14.121094 9.691406 -13.550781 8.683594 -13.023438 C 7.234375 -12.191406 5.613281 -11.75 3.902344 -11.75 C 3.507812 -11.75 3.15625 -12.453125 3.246094 -12.714844 C 5.699219 -18.109375 4.605469 -19.117188 4.210938 -19.511719 C 3.550781 -20.171875 2.542969 -20.125 1.316406 -19.382812 C -0.703125 -17.933594 -1.578125 -15.347656 -0.878906 -12.933594 C -0.703125 -12.277344 -0.394531 -11.664062 0.0429688 -11.136719 C 0 -10.65625 0.21875 -10.21875 0.65625 -9.996094 C 0.921875 -9.867188 1.226562 -9.867188 1.535156 -9.953125 C 2.28125 -9.601562 3.113281 -9.425781 3.945312 -9.425781 C 5.746094 -9.382812 7.5 -9.777344 9.078125 -10.65625 C 9.691406 -10.960938 9.910156 -10.699219 9.820312 -10.523438 C 8.769531 -8.460938 6.882812 -4.691406 11.09375 -2.234375 C 12.585938 -1.535156 14.25 -1.226562 15.917969 -1.359375 C 22.054688 -1.359375 31.703125 -3.992188 37.753906 -9.910156 C 37.972656 -10.085938 38.105469 -10.390625 38.105469 -10.699219 C 38.148438 -11.007812 38.015625 -11.3125 37.796875 -11.53125 Z M 1.273438 -13.945312 C 1.007812 -15.214844 1.445312 -16.53125 2.457031 -17.363281 C 2.148438 -16.179688 1.753906 -15.039062 1.273438 -13.898438 Z M 1.273438 -13.945312 "/></g></g></g><g fill="#763c00" fill-opacity="1"><g transform="translate(75.60725, 274.94646)"><g><path d="M 6.4375 -14.09375 C 8.25 -14.09375 9.882812 -13.613281 11.34375 -12.65625 L 10.359375 -10.578125 C 8.929688 -11.441406 7.566406 -11.875 6.265625 -11.875 C 5.554688 -11.875 5 -11.75 4.59375 -11.5 C 4.1875 -11.25 3.984375 -10.890625 3.984375 -10.421875 C 3.984375 -9.953125 4.164062 -9.550781 4.53125 -9.21875 C 4.90625 -8.894531 5.375 -8.65625 5.9375 -8.5 C 6.5 -8.351562 7.101562 -8.160156 7.75 -7.921875 C 8.40625 -7.691406 9.015625 -7.445312 9.578125 -7.1875 C 10.140625 -6.925781 10.601562 -6.519531 10.96875 -5.96875 C 11.332031 -5.414062 11.515625 -4.742188 11.515625 -3.953125 C 11.515625 -2.734375 11.023438 -1.753906 10.046875 -1.015625 C 9.066406 -0.285156 7.796875 0.078125 6.234375 0.078125 C 5.171875 0.078125 4.140625 -0.117188 3.140625 -0.515625 C 2.140625 -0.921875 1.265625 -1.460938 0.515625 -2.140625 L 1.546875 -4.1875 C 2.242188 -3.53125 3.015625 -3.023438 3.859375 -2.671875 C 4.710938 -2.316406 5.519531 -2.140625 6.28125 -2.140625 C 7.101562 -2.140625 7.742188 -2.289062 8.203125 -2.59375 C 8.671875 -2.894531 8.90625 -3.3125 8.90625 -3.84375 C 8.90625 -4.320312 8.71875 -4.722656 8.34375 -5.046875 C 7.96875 -5.378906 7.5 -5.617188 6.9375 -5.765625 C 6.375 -5.921875 5.765625 -6.109375 5.109375 -6.328125 C 4.460938 -6.546875 3.859375 -6.78125 3.296875 -7.03125 C 2.734375 -7.28125 2.265625 -7.675781 1.890625 -8.21875 C 1.523438 -8.769531 1.34375 -9.429688 1.34375 -10.203125 C 1.34375 -11.390625 1.804688 -12.332031 2.734375 -13.03125 C 3.671875 -13.738281 4.90625 -14.09375 6.4375 -14.09375 Z M 6.4375 -14.09375 "/></g></g></g><g fill="#763c00" fill-opacity="1"><g transform="translate(94.044679, 274.94646)"><g><path d="M 4.203125 -2.140625 L 10.265625 -2.140625 L 10.265625 0 L 1.84375 0 L 1.84375 -14 L 4.203125 -14 Z M 4.203125 -2.140625 "/></g></g></g><g fill="#763c00" fill-opacity="1"><g transform="translate(110.722522, 274.94646)"><g><path d="M 2.8125 -12.03125 C 4.238281 -13.382812 6 -14.0625 8.09375 -14.0625 C 10.1875 -14.0625 11.945312 -13.382812 13.375 -12.03125 C 14.800781 -10.675781 15.515625 -9 15.515625 -7 C 15.515625 -5 14.800781 -3.316406 13.375 -1.953125 C 11.945312 -0.585938 10.1875 0.09375 8.09375 0.09375 C 6 0.09375 4.238281 -0.585938 2.8125 -1.953125 C 1.394531 -3.316406 0.6875 -5 0.6875 -7 C 0.6875 -9 1.394531 -10.675781 2.8125 -12.03125 Z M 8.125 -11.9375 C 6.738281 -11.9375 5.550781 -11.457031 4.5625 -10.5 C 3.570312 -9.550781 3.078125 -8.382812 3.078125 -7 C 3.078125 -5.613281 3.570312 -4.4375 4.5625 -3.46875 C 5.5625 -2.5 6.75 -2.015625 8.125 -2.015625 C 9.5 -2.015625 10.671875 -2.5 11.640625 -3.46875 C 12.609375 -4.4375 13.09375 -5.613281 13.09375 -7 C 13.09375 -8.382812 12.609375 -9.550781 11.640625 -10.5 C 10.671875 -11.457031 9.5 -11.9375 8.125 -11.9375 Z M 8.125 -11.9375 "/></g></g></g><g fill="#763c00" fill-opacity="1"><g transform="translate(132.91906, 274.94646)"><g><path d="M 16.234375 0 L 13.8125 0 L 10.5 -10.921875 L 7.140625 0 L 4.703125 0 L 0.0625 -14 L 2.59375 -14 L 6 -2.625 L 9.375 -13.984375 L 11.703125 -14 L 15.09375 -2.625 L 18.484375 -14 L 20.921875 -14 Z M 16.234375 0 "/></g></g></g><g fill="#763c00" fill-opacity="1"><g transform="translate(159.634504, 274.94646)"><g/></g></g><g fill="#763c00" fill-opacity="1"><g transform="translate(170.793666, 274.94646)"><g><path d="M 11.21875 -11.875 L 4.203125 -11.875 L 4.203125 -7.84375 L 10.5625 -7.84375 L 10.5625 -5.734375 L 4.203125 -5.734375 L 4.203125 0 L 1.84375 0 L 1.84375 -14 L 11.234375 -14 Z M 11.21875 -11.875 "/></g></g></g><g fill="#763c00" fill-opacity="1"><g transform="translate(188.291309, 274.94646)"><g><path d="M 10.875 -3.15625 L 3.8125 -3.15625 L 2.484375 0 L 0.015625 0 L 6.203125 -14 L 8.625 -14 L 14.734375 0 L 12.21875 0 Z M 9.984375 -5.265625 L 7.34375 -11.484375 L 4.703125 -5.265625 Z M 9.984375 -5.265625 "/></g></g></g><g fill="#763c00" fill-opacity="1"><g transform="translate(209.048185, 274.94646)"><g><path d="M 6.4375 -14.09375 C 8.25 -14.09375 9.882812 -13.613281 11.34375 -12.65625 L 10.359375 -10.578125 C 8.929688 -11.441406 7.566406 -11.875 6.265625 -11.875 C 5.554688 -11.875 5 -11.75 4.59375 -11.5 C 4.1875 -11.25 3.984375 -10.890625 3.984375 -10.421875 C 3.984375 -9.953125 4.164062 -9.550781 4.53125 -9.21875 C 4.90625 -8.894531 5.375 -8.65625 5.9375 -8.5 C 6.5 -8.351562 7.101562 -8.160156 7.75 -7.921875 C 8.40625 -7.691406 9.015625 -7.445312 9.578125 -7.1875 C 10.140625 -6.925781 10.601562 -6.519531 10.96875 -5.96875 C 11.332031 -5.414062 11.515625 -4.742188 11.515625 -3.953125 C 11.515625 -2.734375 11.023438 -1.753906 10.046875 -1.015625 C 9.066406 -0.285156 7.796875 0.078125 6.234375 0.078125 C 5.171875 0.078125 4.140625 -0.117188 3.140625 -0.515625 C 2.140625 -0.921875 1.265625 -1.460938 0.515625 -2.140625 L 1.546875 -4.1875 C 2.242188 -3.53125 3.015625 -3.023438 3.859375 -2.671875 C 4.710938 -2.316406 5.519531 -2.140625 6.28125 -2.140625 C 7.101562 -2.140625 7.742188 -2.289062 8.203125 -2.59375 C 8.671875 -2.894531 8.90625 -3.3125 8.90625 -3.84375 C 8.90625 -4.320312 8.71875 -4.722656 8.34375 -5.046875 C 7.96875 -5.378906 7.5 -5.617188 6.9375 -5.765625 C 6.375 -5.921875 5.765625 -6.109375 5.109375 -6.328125 C 4.460938 -6.546875 3.859375 -6.78125 3.296875 -7.03125 C 2.734375 -7.28125 2.265625 -7.675781 1.890625 -8.21875 C 1.523438 -8.769531 1.34375 -9.429688 1.34375 -10.203125 C 1.34375 -11.390625 1.804688 -12.332031 2.734375 -13.03125 C 3.671875 -13.738281 4.90625 -14.09375 6.4375 -14.09375 Z M 6.4375 -14.09375 "/></g></g></g><g fill="#763c00" fill-opacity="1"><g transform="translate(227.48561, 274.94646)"><g><path d="M 13.984375 0 L 11.625 0 L 11.625 -5.796875 L 4.203125 -5.796875 L 4.203125 0 L 1.84375 0 L 1.84375 -14 L 4.203125 -14 L 4.203125 -7.921875 L 11.625 -7.921875 L 11.625 -14 L 13.984375 -14 Z M 13.984375 0 "/></g></g></g><g fill="#763c00" fill-opacity="1"><g transform="translate(249.302227, 274.94646)"><g><path d="M 4.203125 0 L 1.84375 0 L 1.84375 -14 L 4.203125 -14 Z M 4.203125 0 "/></g></g></g><g fill="#763c00" fill-opacity="1"><g transform="translate(261.341182, 274.94646)"><g><path d="M 2.8125 -12.03125 C 4.238281 -13.382812 6 -14.0625 8.09375 -14.0625 C 10.1875 -14.0625 11.945312 -13.382812 13.375 -12.03125 C 14.800781 -10.675781 15.515625 -9 15.515625 -7 C 15.515625 -5 14.800781 -3.316406 13.375 -1.953125 C 11.945312 -0.585938 10.1875 0.09375 8.09375 0.09375 C 6 0.09375 4.238281 -0.585938 2.8125 -1.953125 C 1.394531 -3.316406 0.6875 -5 0.6875 -7 C 0.6875 -9 1.394531 -10.675781 2.8125 -12.03125 Z M 8.125 -11.9375 C 6.738281 -11.9375 5.550781 -11.457031 4.5625 -10.5 C 3.570312 -9.550781 3.078125 -8.382812 3.078125 -7 C 3.078125 -5.613281 3.570312 -4.4375 4.5625 -3.46875 C 5.5625 -2.5 6.75 -2.015625 8.125 -2.015625 C 9.5 -2.015625 10.671875 -2.5 11.640625 -3.46875 C 12.609375 -4.4375 13.09375 -5.613281 13.09375 -7 C 13.09375 -8.382812 12.609375 -9.550781 11.640625 -10.5 C 10.671875 -11.457031 9.5 -11.9375 8.125 -11.9375 Z M 8.125 -11.9375 "/></g></g></g><g fill="#763c00" fill-opacity="1"><g transform="translate(283.537716, 274.94646)"><g><path d="M 13.984375 0 L 11.65625 0 L 4.203125 -10.046875 L 4.203125 0 L 1.84375 0 L 1.84375 -14 L 4.15625 -14 L 11.65625 -3.9375 L 11.65625 -14 L 13.984375 -14 Z M 13.984375 0 "/></g></g></g></svg>